<svg width="24" height="24" viewBox="0 0 24 24" fill="none" xmlns="http://www.w3.org/2000/svg">
<path fill-rule="evenodd" clip-rule="evenodd" d="M11.943 1.25C9.87 1.25 8.237 1.25 6.961 1.423C5.651 1.601 4.606 1.975 3.785 2.805C2.965 3.634 2.597 4.687 2.421 6.007C2.25 7.296 2.25 8.945 2.25 11.041V16.139C2.25 17.647 2.25 18.84 2.346 19.739C2.441 20.627 2.644 21.428 3.226 21.964C3.692 22.394 4.282 22.664 4.912 22.737C5.699 22.827 6.434 22.451 7.159 21.937C7.892 21.419 8.781 20.632 9.903 19.64L9.939 19.608C10.459 19.148 10.811 18.838 11.105 18.622C11.389 18.415 11.562 18.34 11.708 18.31C11.9008 18.2717 12.0992 18.2717 12.292 18.31C12.438 18.34 12.612 18.415 12.895 18.622C13.189 18.837 13.541 19.148 14.061 19.608L14.098 19.64C15.219 20.632 16.108 21.419 16.841 21.938C17.566 22.451 18.301 22.827 19.088 22.737C19.7175 22.6639 20.3078 22.3933 20.774 21.964C21.355 21.428 21.559 20.627 21.654 19.739C21.75 18.84 21.75 17.647 21.75 16.139V11.041C21.75 8.945 21.75 7.295 21.579 6.007C21.403 4.687 21.035 3.634 20.215 2.805C19.394 1.975 18.349 1.601 17.039 1.423C15.763 1.25 14.13 1.25 12.057 1.25H11.943Z" fill="#258694"/>
<path d="M9 5.25C8.80109 5.25 8.61032 5.32902 8.46967 5.46967C8.32902 5.61032 8.25 5.80109 8.25 6C8.25 6.19891 8.32902 6.38968 8.46967 6.53033C8.61032 6.67098 8.80109 6.75 9 6.75H15C15.1989 6.75 15.3897 6.67098 15.5303 6.53033C15.671 6.38968 15.75 6.19891 15.75 6C15.75 5.80109 15.671 5.61032 15.5303 5.46967C15.3897 5.32902 15.1989 5.25 15 5.25H9Z" fill="white"/>
</svg>
